<svg width="30" height="30" viewBox="0 0 30 30" fill="none" xmlns="http://www.w3.org/2000/svg">
<path d="M17.7 15L29.4 3.3C29.8 2.96667 30 2.53333 30 2C30 1.46667 29.8167 1 29.45 0.6C29.0833 0.2 28.6333 -4.47035e-07 28.1 -4.47035e-07C27.5667 -4.47035e-07 27.1 0.2 26.7 0.6L15 12.3L3.3 0.6C2.9 0.2 2.43333 -4.47035e-07 1.9 -4.47035e-07C1.36667 -4.47035e-07 0.916667 0.2 0.55 0.6C0.183333 1 0 1.46667 0 2C0 2.53333 0.2 2.96667 0.6 3.3L12.3 15L0.6 26.7C0.2 27.1 0 27.5667 0 28.1C0 28.6333 0.183333 29.0833 0.55 29.45C0.916667 29.8167 1.36667 30 1.9 30C2.43333 30 2.9 29.8333 3.3 29.5L15 17.8L26.7 29.5C27.1 29.8333 27.5667 30 28.1 30C28.6333 30 29.0833 29.8167 29.45 29.45C29.8167 29.0833 30 28.6333 30 28.1C30 27.5667 29.8 27.1 29.4 26.7L17.7 15Z" fill="#741FF5"/>
</svg>
