<svg width="54" height="55" viewBox="0 0 54 55" fill="none" xmlns="http://www.w3.org/2000/svg">
<g opacity="0.4" filter="url(#filter0_d_1_939)">
<rect x="7" y="4.84009" width="40" height="40" rx="20" fill="white"/>
<rect x="7.5" y="5.34009" width="39" height="39" rx="19.5" stroke="#838383" stroke-opacity="0.25"/>
<path d="M23.3062 24.2463L28.9897 18.5334C29.2827 18.2698 29.7222 18.2698 29.9858 18.5334L30.6597 19.2073C30.9233 19.4709 30.9233 19.9104 30.6597 20.2034L26.1479 24.7151L30.6597 29.2561C30.9233 29.5491 30.9233 29.9885 30.6597 30.2522L29.9858 30.926C29.7222 31.1897 29.2827 31.1897 28.9897 30.926L23.3062 25.2131C23.0425 24.9495 23.0425 24.51 23.3062 24.2463Z" fill="#B7B4BB"/>
</g>
<defs>
<filter id="filter0_d_1_939" x="0" y="0.840088" width="54" height="54" filterUnits="userSpaceOnUse" color-interpolation-filters="sRGB">
<feFlood flood-opacity="0" result="BackgroundImageFix"/>
<feColorMatrix in="SourceAlpha" type="matrix" values="0 0 0 0 0 0 0 0 0 0 0 0 0 0 0 0 0 0 127 0" result="hardAlpha"/>
<feMorphology radius="1" operator="erode" in="SourceAlpha" result="effect1_dropShadow_1_939"/>
<feOffset dy="3"/>
<feGaussianBlur stdDeviation="4"/>
<feComposite in2="hardAlpha" operator="out"/>
<feColorMatrix type="matrix" values="0 0 0 0 0 0 0 0 0 0 0 0 0 0 0 0 0 0 0.08 0"/>
<feBlend mode="normal" in2="BackgroundImageFix" result="effect1_dropShadow_1_939"/>
<feBlend mode="normal" in="SourceGraphic" in2="effect1_dropShadow_1_939" result="shape"/>
</filter>
</defs>
</svg>
