<svg width="20" height="17" viewBox="0 0 20 17" fill="none" xmlns="http://www.w3.org/2000/svg">
<path d="M15.7866 2.01562C17.7202 4.88672 18.687 8.10938 18.3354 11.8301C18.3354 11.8301 18.3354 11.8594 18.3062 11.8594C17.0171 12.8262 15.5522 13.5586 13.9995 14.0273C13.9702 14.0273 13.9409 14.0273 13.9409 14.0273C13.6187 13.5586 13.3257 13.0898 13.062 12.5918V12.5625C13.062 12.5332 13.062 12.5332 13.0913 12.5039C13.5601 12.3281 13.9995 12.123 14.439 11.8594C14.4683 11.8594 14.4683 11.8594 14.4683 11.8301C14.4683 11.8008 14.4683 11.8008 14.439 11.7715C14.3511 11.7129 14.2632 11.6543 14.1753 11.5664H14.146H14.1167C11.3335 12.8555 8.28662 12.8555 5.47412 11.5664C5.44482 11.5664 5.44482 11.5664 5.44482 11.5664C5.41553 11.5664 5.41553 11.5664 5.41553 11.5664C5.32764 11.6543 5.23975 11.7129 5.15186 11.7715C5.12256 11.8008 5.12256 11.8008 5.12256 11.8301C5.12256 11.8594 5.12256 11.8594 5.15186 11.8594C5.56201 12.123 6.03076 12.3281 6.49951 12.5039C6.49951 12.5332 6.52881 12.5332 6.52881 12.5625V12.5918C6.26514 13.0898 5.97217 13.5586 5.6499 14.0273C5.62061 14.0273 5.62061 14.0273 5.59131 14.0273C4.00928 13.5586 2.54443 12.8262 1.28467 11.8594C1.25537 11.8594 1.25537 11.8301 1.25537 11.8301C0.962402 8.60742 1.57764 5.35547 3.8042 2.01562C3.8042 2.01562 3.8042 2.01562 3.8335 2.01562C4.91748 1.51758 6.11865 1.13672 7.31982 0.931641C7.31982 0.931641 7.31982 0.931641 7.34912 0.931641H7.37842C7.5542 1.22461 7.70068 1.54688 7.81787 1.83984C8.4624 1.75195 9.10693 1.69336 9.78076 1.69336C10.4546 1.69336 11.1284 1.75195 11.7729 1.83984C11.8901 1.54688 12.0366 1.22461 12.2124 0.931641L12.2417 0.902344C12.2417 0.902344 12.2417 0.931641 12.271 0.931641C13.4722 1.13672 14.6733 1.51758 15.7573 2.01562C15.7866 2.01562 15.7866 2.01562 15.7866 2.01562ZM6.93896 9.86719C7.78857 9.86719 8.4917 9.07617 8.4917 8.13867C8.4917 7.17188 7.81787 6.41016 6.93896 6.41016C6.08936 6.41016 5.38623 7.17188 5.38623 8.13867C5.38623 9.07617 6.08936 9.86719 6.93896 9.86719ZM12.6519 9.86719C13.5308 9.86719 14.2046 9.07617 14.2046 8.13867C14.2339 7.17188 13.5308 6.41016 12.6519 6.41016C11.8022 6.41016 11.1284 7.17188 11.1284 8.13867C11.1284 9.07617 11.8022 9.86719 12.6519 9.86719Z" fill="white"/>
</svg>
