<svg width="50" height="51" viewBox="0 0 50 51" fill="none" xmlns="http://www.w3.org/2000/svg">
<g clip-path="url(#clip0_1_981)">
<path d="M26.5625 8.04248H31.25C31.6732 8.04248 32.0719 8.12386 32.4463 8.28662C32.8206 8.44938 33.1543 8.67725 33.4473 8.97021C33.7402 9.26318 33.9681 9.59684 34.1309 9.97119C34.2936 10.3455 34.375 10.7443 34.375 11.1675V18.98H31.25V11.1675H26.5625V15.855H7.8125V11.1675H3.125V43.98H17.1875V47.105H3.125C2.70182 47.105 2.30306 47.0236 1.92871 46.8608C1.55436 46.6981 1.2207 46.4702 0.927734 46.1772C0.634766 45.8843 0.406901 45.5506 0.244141 45.1763C0.0813802 44.8019 0 44.4032 0 43.98V11.1675C0 10.7443 0.0813802 10.3455 0.244141 9.97119C0.406901 9.59684 0.634766 9.26318 0.927734 8.97021C1.2207 8.67725 1.55436 8.44938 1.92871 8.28662C2.30306 8.12386 2.70182 8.04248 3.125 8.04248H7.8125V6.47998C7.8125 6.0568 7.89388 5.65804 8.05664 5.28369C8.2194 4.90934 8.44727 4.57568 8.74023 4.28271C9.0332 3.98975 9.36686 3.76188 9.74121 3.59912C10.1156 3.43636 10.5143 3.35498 10.9375 3.35498H23.4375C23.8607 3.35498 24.2594 3.43636 24.6338 3.59912C25.0081 3.76188 25.3418 3.98975 25.6348 4.28271C25.9277 4.57568 26.1556 4.90934 26.3184 5.28369C26.4811 5.65804 26.5625 6.0568 26.5625 6.47998V8.04248ZM10.9375 12.73H23.4375V6.47998H10.9375V12.73ZM37.9395 26.9878C38.2975 27.6714 38.5742 28.3957 38.7695 29.1606C38.9648 29.9256 39.0625 30.6987 39.0625 31.48C39.0625 32.131 38.9974 32.7821 38.8672 33.4331C38.737 34.0841 38.5254 34.7026 38.2324 35.2886C37.972 35.9071 37.6465 36.4767 37.2559 36.9976C36.8652 37.5184 36.4258 38.0067 35.9375 38.4624V50.23L29.6875 47.2515L23.4375 50.23V38.4624C22.8516 37.9416 22.3389 37.3556 21.8994 36.7046C21.46 36.0535 21.11 35.3537 20.8496 34.605C20.5892 33.8888 20.4264 33.1401 20.3613 32.3589C20.2962 31.5776 20.3125 30.7964 20.4102 30.0151C20.5404 29.2339 20.7601 28.4852 21.0693 27.769C21.3786 27.0529 21.7773 26.3856 22.2656 25.7671C22.7214 25.1486 23.2585 24.5952 23.877 24.1069C24.4954 23.6187 25.1628 23.2118 25.8789 22.8862C26.5951 22.5607 27.3356 22.3328 28.1006 22.2026C28.8656 22.0724 29.6387 22.0399 30.4199 22.105C31.2012 22.1701 31.9661 22.3328 32.7148 22.5933C33.4635 22.8537 34.1634 23.1955 34.8145 23.6187C35.4655 24.0418 36.0514 24.5382 36.5723 25.1079C37.0931 25.6776 37.5488 26.3042 37.9395 26.9878ZM29.6875 43.8335L32.8125 45.2983V40.3179C31.8034 40.6759 30.7617 40.855 29.6875 40.855C28.6133 40.855 27.5716 40.6759 26.5625 40.3179V45.2983L29.6875 43.8335ZM26.2207 36.6558C26.7415 37.0138 27.2949 37.2824 27.8809 37.4614C28.4668 37.6405 29.069 37.73 29.6875 37.73C30.5013 37.73 31.2907 37.5672 32.0557 37.2417C32.8206 36.9162 33.4961 36.4604 34.082 35.8745C34.668 35.2886 35.1237 34.6131 35.4492 33.8481C35.7747 33.0832 35.9375 32.2938 35.9375 31.48C35.9375 30.8615 35.848 30.2593 35.6689 29.6733C35.4899 29.0874 35.2214 28.534 34.8633 28.0132C34.5378 27.4923 34.139 27.0366 33.667 26.646C33.195 26.2554 32.666 25.9461 32.0801 25.7183C31.4941 25.4578 30.9001 25.3032 30.2979 25.2544C29.6956 25.2056 29.0853 25.23 28.4668 25.3276C27.8483 25.4578 27.2705 25.6694 26.7334 25.9624C26.1963 26.2554 25.6999 26.6297 25.2441 27.0854C24.821 27.5086 24.4629 27.9888 24.1699 28.5259C23.877 29.063 23.6654 29.6408 23.5352 30.2593C23.4375 30.8778 23.4131 31.4881 23.4619 32.0903C23.5107 32.6925 23.6654 33.2866 23.9258 33.8726C24.1536 34.4585 24.4629 34.9875 24.8535 35.4595C25.2441 35.9315 25.6999 36.3302 26.2207 36.6558Z" fill="url(#paint0_linear_1_981)"/>
</g>
<defs>
<linearGradient id="paint0_linear_1_981" x1="3.61844e-07" y1="3.35498" x2="49.9384" y2="29.2811" gradientUnits="userSpaceOnUse">
<stop stop-color="#2600FC"/>
<stop offset="1" stop-color="#FF00EA"/>
</linearGradient>
<clipPath id="clip0_1_981">
<rect width="50" height="50" fill="white" transform="matrix(1 0 0 -1 0 50.23)"/>
</clipPath>
</defs>
</svg>
