<svg width="51" height="51" viewBox="0 0 51 51" fill="none" xmlns="http://www.w3.org/2000/svg">
<g clip-path="url(#clip0_1_972)">
<path d="M10.2005 7.06583C11.9909 5.86141 13.9277 4.94181 16.0111 4.30704C18.0944 3.67228 20.2103 3.3549 22.3587 3.3549C23.8236 3.3549 25.2559 3.50138 26.6556 3.79435C28.0553 4.05477 29.4144 4.46167 30.7327 5.01505C32.0511 5.56844 33.3125 6.23576 34.5169 7.01701C35.6888 7.83081 36.7956 8.74227 37.8372 9.75138C38.8464 10.793 39.7578 11.8998 40.5716 13.0717C41.3529 14.2761 42.0202 15.5375 42.5736 16.8559C43.127 18.1742 43.5339 19.5333 43.7943 20.933C44.0872 22.3328 44.2337 23.7651 44.2337 25.2299C44.2337 27.3783 43.9163 29.4942 43.2816 31.5776C42.6468 33.6609 41.7272 35.5977 40.5228 37.3881C39.3509 39.1785 37.9268 40.7572 36.2503 42.1244C34.5739 43.4916 32.7266 44.5984 30.7083 45.4447C28.7227 46.2585 26.6556 46.7712 24.5072 46.9828C22.3587 47.1944 20.2266 47.0886 18.1107 46.6654C15.9622 46.2423 13.9359 45.5261 12.0316 44.517C10.1273 43.5079 8.41016 42.2384 6.88021 40.7084C5.35026 39.1785 4.08073 37.4613 3.07161 35.557C2.0625 33.6528 1.34635 31.6264 0.923177 29.4779C0.5 27.3621 0.394206 25.2299 0.605794 23.0815C0.817383 20.933 1.33008 18.866 2.14388 16.8803C2.99023 14.8621 4.09701 13.0147 5.46419 11.3383C6.83138 9.66187 8.41016 8.23771 10.2005 7.06583ZM11.9583 40.8061C13.4883 41.8477 15.1403 42.6371 16.9144 43.1742C18.6885 43.7113 20.5033 43.9799 22.3587 43.9799C24.8327 43.9799 27.2253 43.5079 29.5365 42.5639C31.8477 41.6199 33.8822 40.269 35.64 38.5111C37.3978 36.7533 38.7487 34.7188 39.6927 32.4076C40.6367 30.0964 41.1087 27.7039 41.1087 25.2299C41.1087 23.3744 40.8402 21.5597 40.3031 19.7856C39.766 18.0115 38.9766 16.3595 37.9349 14.8295C36.9258 13.267 35.7051 11.8998 34.2728 10.7279C32.8405 9.55607 31.2617 8.61206 29.5365 7.89591C27.8112 7.17977 26.029 6.73218 24.1898 6.55314C22.3506 6.3741 20.5195 6.46362 18.6966 6.82169C16.8737 7.17977 15.1484 7.79826 13.5208 8.67716C11.8932 9.55607 10.4121 10.6466 9.07747 11.9486C7.77539 13.2833 6.6849 14.7644 5.80599 16.392C4.92708 18.0196 4.30859 19.7449 3.95052 21.5678C3.59245 23.3907 3.50293 25.2218 3.68197 27.061C3.861 28.9001 4.30859 30.6824 5.02474 32.4076C5.74089 34.1329 6.6849 35.7117 7.85677 37.144C9.02865 38.5763 10.3958 39.797 11.9583 40.8061ZM11.4212 25.8647L19.2337 33.6772L33.2962 19.6147L31.099 17.4174L19.2337 29.2826L13.6185 23.6674L11.4212 25.8647Z" fill="url(#paint0_linear_1_972)"/>
</g>
<defs>
<linearGradient id="paint0_linear_1_972" x1="0.5" y1="3.3549" x2="51.6335" y2="35.2108" gradientUnits="userSpaceOnUse">
<stop stop-color="#2600FC"/>
<stop offset="1" stop-color="#FF00EA"/>
</linearGradient>
<clipPath id="clip0_1_972">
<rect width="50" height="50" fill="white" transform="matrix(1 0 0 -1 0.5 50.23)"/>
</clipPath>
</defs>
</svg>
