<svg width="50" height="51" viewBox="0 0 50 51" fill="none" xmlns="http://www.w3.org/2000/svg">
<path d="M3.125 43.98H9.375V40.855H3.125V9.60498H14.9902L21.2402 15.855H40.625V28.355H43.75V15.855C43.75 15.4318 43.6686 15.033 43.5059 14.6587C43.3431 14.2843 43.1152 13.9507 42.8223 13.6577C42.5293 13.3647 42.1956 13.1369 41.8213 12.9741C41.4469 12.8114 41.0482 12.73 40.625 12.73H22.5098L17.1875 7.40771C17.0573 7.24495 16.9027 7.10661 16.7236 6.99268C16.5446 6.87874 16.3574 6.78923 16.1621 6.72412C15.9668 6.62646 15.7715 6.56136 15.5762 6.52881C15.3809 6.49626 15.1855 6.47998 14.9902 6.47998H3.125C2.70182 6.47998 2.30306 6.56136 1.92871 6.72412C1.55436 6.88688 1.2207 7.11475 0.927734 7.40771C0.634766 7.70068 0.406901 8.03434 0.244141 8.40869C0.0813802 8.78304 0 9.1818 0 9.60498V40.855C0 41.2782 0.0813802 41.6769 0.244141 42.0513C0.406901 42.4256 0.634766 42.7593 0.927734 43.0522C1.2207 43.3452 1.55436 43.5731 1.92871 43.7358C2.30306 43.8986 2.70182 43.98 3.125 43.98ZM23.4375 33.0425H12.5V22.105H23.4375V33.0425ZM15.625 29.9175H20.3125V25.23H15.625V29.9175ZM23.4375 47.105H12.5V36.1675H23.4375V47.105ZM15.625 43.98H20.3125V39.2925H15.625V43.98ZM26.5625 33.0425H37.5V22.105H26.5625V33.0425ZM34.375 29.9175H29.6875V25.23H34.375V29.9175ZM37.5 47.105H26.5625V36.1675H37.5V47.105ZM29.6875 43.98H34.375V39.2925H29.6875V43.98Z" fill="url(#paint0_linear_1_963)"/>
<defs>
<linearGradient id="paint0_linear_1_963" x1="4.05265e-07" y1="6.47998" x2="48.9653" y2="39.3316" gradientUnits="userSpaceOnUse">
<stop stop-color="#2600FC"/>
<stop offset="1" stop-color="#FF00EA"/>
</linearGradient>
</defs>
</svg>
