<svg width="15" height="17" viewBox="0 0 15 17" fill="none" xmlns="http://www.w3.org/2000/svg">
<path d="M7.06006 4.0957C8.90576 4.0957 10.4292 5.61914 10.4292 7.46484C10.4292 9.33984 8.90576 10.834 7.06006 10.834C5.18506 10.834 3.69092 9.33984 3.69092 7.46484C3.69092 5.61914 5.18506 4.0957 7.06006 4.0957ZM7.06006 9.66211C8.26123 9.66211 9.22803 8.69531 9.22803 7.46484C9.22803 6.26367 8.26123 5.29688 7.06006 5.29688C5.82959 5.29688 4.86279 6.26367 4.86279 7.46484C4.86279 8.69531 5.85889 9.66211 7.06006 9.66211ZM11.3374 3.97852C11.3374 4.41797 10.9858 4.76953 10.5464 4.76953C10.1069 4.76953 9.75537 4.41797 9.75537 3.97852C9.75537 3.53906 10.1069 3.1875 10.5464 3.1875C10.9858 3.1875 11.3374 3.53906 11.3374 3.97852ZM13.564 4.76953C13.6226 5.85352 13.6226 9.10547 13.564 10.1895C13.5054 11.2441 13.271 12.1523 12.5093 12.9434C11.7476 13.7051 10.8101 13.9395 9.75537 13.998C8.67139 14.0566 5.41943 14.0566 4.33545 13.998C3.28076 13.9395 2.37256 13.7051 1.58154 12.9434C0.819824 12.1523 0.585449 11.2441 0.526855 10.1895C0.468262 9.10547 0.468262 5.85352 0.526855 4.76953C0.585449 3.71484 0.819824 2.77734 1.58154 2.01562C2.37256 1.25391 3.28076 1.01953 4.33545 0.960938C5.41943 0.902344 8.67139 0.902344 9.75537 0.960938C10.8101 1.01953 11.7476 1.25391 12.5093 2.01562C13.271 2.77734 13.5054 3.71484 13.564 4.76953ZM12.1577 11.332C12.5093 10.4824 12.4214 8.43164 12.4214 7.46484C12.4214 6.52734 12.5093 4.47656 12.1577 3.59766C11.9233 3.04102 11.4839 2.57227 10.9272 2.36719C10.0483 2.01562 7.99756 2.10352 7.06006 2.10352C6.09326 2.10352 4.04248 2.01562 3.19287 2.36719C2.60693 2.60156 2.16748 3.04102 1.93311 3.59766C1.58154 4.47656 1.66943 6.52734 1.66943 7.46484C1.66943 8.43164 1.58154 10.4824 1.93311 11.332C2.16748 11.918 2.60693 12.3574 3.19287 12.5918C4.04248 12.9434 6.09326 12.8555 7.06006 12.8555C7.99756 12.8555 10.0483 12.9434 10.9272 12.5918C11.4839 12.3574 11.9526 11.918 12.1577 11.332Z" fill="white"/>
</svg>
