<svg width="21" height="22" viewBox="0 0 21 22" fill="none" xmlns="http://www.w3.org/2000/svg">
<path d="M4.65625 2.06104C5.51562 1.48291 6.44531 1.0415 7.44531 0.736816C8.44531 0.432129 9.46094 0.279785 10.4922 0.279785C11.1953 0.279785 11.8828 0.350098 12.5547 0.490723C13.2266 0.615723 13.8789 0.811035 14.5117 1.07666C15.1445 1.34229 15.75 1.6626 16.3281 2.0376C16.8906 2.42822 17.4219 2.86572 17.9219 3.3501C18.4062 3.8501 18.8438 4.38135 19.2344 4.94385C19.6094 5.52197 19.9297 6.12744 20.1953 6.76025C20.4609 7.39307 20.6562 8.04541 20.7812 8.71729C20.9219 9.38916 20.9922 10.0767 20.9922 10.7798C20.9922 11.811 20.8398 12.8267 20.5352 13.8267C20.2305 14.8267 19.7891 15.7563 19.2109 16.6157C18.6484 17.4751 17.9648 18.2329 17.1602 18.8892C16.3555 19.5454 15.4688 20.0767 14.5 20.4829C13.5469 20.8735 12.5547 21.1196 11.5234 21.2212C10.4922 21.3228 9.46875 21.272 8.45312 21.0688C7.42188 20.8657 6.44922 20.522 5.53516 20.0376C4.62109 19.5532 3.79688 18.9438 3.0625 18.2095C2.32812 17.4751 1.71875 16.6509 1.23438 15.7368C0.75 14.8228 0.40625 13.8501 0.203125 12.8188C0 11.8032 -0.0507812 10.7798 0.0507812 9.74854C0.152344 8.71729 0.398438 7.7251 0.789062 6.77197C1.19531 5.80322 1.72656 4.9165 2.38281 4.11182C3.03906 3.30713 3.79688 2.62354 4.65625 2.06104ZM5.5 18.2563C6.23438 18.7563 7.02734 19.1353 7.87891 19.3931C8.73047 19.6509 9.60156 19.7798 10.4922 19.7798C11.6797 19.7798 12.8281 19.5532 13.9375 19.1001C15.0469 18.647 16.0234 17.9985 16.8672 17.1548C17.7109 16.311 18.3594 15.3345 18.8125 14.2251C19.2656 13.1157 19.4922 11.9673 19.4922 10.7798C19.4922 9.88916 19.3633 9.01807 19.1055 8.1665C18.8477 7.31494 18.4688 6.52197 17.9688 5.7876C17.4844 5.0376 16.8984 4.38135 16.2109 3.81885C15.5234 3.25635 14.7656 2.80322 13.9375 2.45947C13.1094 2.11572 12.2539 1.90088 11.3711 1.81494C10.4883 1.729 9.60938 1.77197 8.73438 1.94385C7.85938 2.11572 7.03125 2.4126 6.25 2.83447C5.46875 3.25635 4.75781 3.77979 4.11719 4.40479C3.49219 5.04541 2.96875 5.75635 2.54688 6.5376C2.125 7.31885 1.82812 8.14697 1.65625 9.02197C1.48437 9.89697 1.44141 10.7759 1.52734 11.6587C1.61328 12.5415 1.82812 13.397 2.17188 14.2251C2.51562 15.0532 2.96875 15.811 3.53125 16.4985C4.09375 17.186 4.75 17.772 5.5 18.2563ZM5.24219 11.0845L8.99219 14.8345L15.7422 8.08447L14.6875 7.02979L8.99219 12.7251L6.29688 10.0298L5.24219 11.0845Z" fill="url(#paint0_linear_1_1131)"/>
<defs>
<linearGradient id="paint0_linear_1_1131" x1="1.94455e-07" y1="0.279785" x2="24.5441" y2="15.5706" gradientUnits="userSpaceOnUse">
<stop stop-color="#2600FC"/>
<stop offset="1" stop-color="#FF00EA"/>
</linearGradient>
</defs>
</svg>
