<svg width="120" height="36" viewBox="0 0 120 36" fill="none" xmlns="http://www.w3.org/2000/svg">
<g clip-path="url(#clip0_1_1482)">
<path d="M22.455 34.6525V9.9025H0V34.6525H6.435V16.0675H16.02V34.6525H22.455Z" fill="white"/>
<path d="M38.2448 9.3625C30.9548 9.3625 25.4648 14.9425 25.4648 22.3225C25.4648 29.6575 30.9098 35.2375 38.4248 35.2375C44.4548 35.2375 49.8098 31.6375 50.8448 25.5625H44.1848C43.5998 28.2625 41.2148 29.7475 38.4698 29.7475C34.8698 29.7475 32.2598 27.3175 32.0348 23.4925H50.8898C50.9798 22.7275 51.0698 21.7375 50.8898 20.4325C50.1248 13.6825 44.6348 9.3625 38.2448 9.3625ZM38.3348 14.6725C40.9448 14.6725 43.5548 16.1575 44.1398 19.2175H32.4848C33.2498 16.4275 35.4548 14.6725 38.3348 14.6725Z" fill="white"/>
<path d="M68.9564 16.0675V9.9025H53.8364V34.6525H60.2714V16.0675H68.9564Z" fill="white"/>
<path d="M77.4999 19.7125V0.00249863H71.0649V34.6525H77.4999V24.3475L86.1849 34.6525H94.3295L83.5299 21.8275L93.4749 9.9025H85.4199L77.4999 19.7125Z" fill="white"/>
<path d="M106.369 9.3625C99.259 9.3625 93.4536 14.8525 93.4536 22.2775C93.4536 29.7025 99.169 35.2375 106.369 35.2375C113.569 35.2375 119.239 29.7475 119.239 22.3225C119.239 14.8525 113.479 9.3625 106.369 9.3625ZM106.369 15.4825C109.969 15.4825 112.759 18.2725 112.759 22.3225C112.759 26.3725 109.969 29.1175 106.369 29.1175C102.814 29.1175 99.979 26.3725 99.979 22.3225C99.979 18.2275 102.769 15.4825 106.369 15.4825Z" fill="white"/>
</g>
<defs>
<clipPath id="clip0_1_1482">
<rect width="120" height="35.625" fill="white" transform="translate(0 0.00249863)"/>
</clipPath>
</defs>
</svg>
