<svg width="40" height="41" viewBox="0 0 40 41" fill="none" xmlns="http://www.w3.org/2000/svg">
<rect x="0.5" y="1.13" width="39" height="39" rx="2.5" stroke="#EFEFEF"/>
<path d="M26.375 14.8175C28.4375 17.88 29.4688 21.3175 29.0938 25.2863C29.0938 25.2863 29.0938 25.3175 29.0625 25.3175C27.6875 26.3488 26.125 27.13 24.4688 27.63C24.4375 27.63 24.4062 27.63 24.4062 27.63C24.0625 27.13 23.75 26.63 23.4688 26.0988V26.0675C23.4688 26.0363 23.4688 26.0363 23.5 26.005C24 25.8175 24.4688 25.5988 24.9375 25.3175C24.9688 25.3175 24.9688 25.3175 24.9688 25.2863C24.9688 25.255 24.9688 25.255 24.9375 25.2238C24.8438 25.1613 24.75 25.0988 24.6562 25.005H24.625H24.5938C21.625 26.38 18.375 26.38 15.375 25.005C15.3438 25.005 15.3438 25.005 15.3438 25.005C15.3125 25.005 15.3125 25.005 15.3125 25.005C15.2188 25.0988 15.125 25.1613 15.0312 25.2238C15 25.255 15 25.255 15 25.2863C15 25.3175 15 25.3175 15.0312 25.3175C15.4688 25.5988 15.9688 25.8175 16.4688 26.005C16.4688 26.0363 16.5 26.0363 16.5 26.0675V26.0988C16.2188 26.63 15.9062 27.13 15.5625 27.63C15.5312 27.63 15.5312 27.63 15.5 27.63C13.8125 27.13 12.25 26.3488 10.9062 25.3175C10.875 25.3175 10.875 25.2863 10.875 25.2863C10.5625 21.8488 11.2188 18.38 13.5938 14.8175C13.5938 14.8175 13.5938 14.8175 13.625 14.8175C14.7812 14.2863 16.0625 13.88 17.3438 13.6613C17.3438 13.6613 17.3438 13.6613 17.375 13.6613H17.4062C17.5938 13.9738 17.75 14.3175 17.875 14.63C18.5625 14.5363 19.25 14.4738 19.9688 14.4738C20.6875 14.4738 21.4062 14.5363 22.0938 14.63C22.2188 14.3175 22.375 13.9738 22.5625 13.6613L22.5938 13.63C22.5938 13.63 22.5938 13.6613 22.625 13.6613C23.9062 13.88 25.1875 14.2863 26.3438 14.8175C26.375 14.8175 26.375 14.8175 26.375 14.8175ZM16.9375 23.1925C17.8438 23.1925 18.5938 22.3488 18.5938 21.3488C18.5938 20.3175 17.875 19.505 16.9375 19.505C16.0312 19.505 15.2812 20.3175 15.2812 21.3488C15.2812 22.3488 16.0312 23.1925 16.9375 23.1925ZM23.0312 23.1925C23.9688 23.1925 24.6875 22.3488 24.6875 21.3488C24.7188 20.3175 23.9688 19.505 23.0312 19.505C22.125 19.505 21.4062 20.3175 21.4062 21.3488C21.4062 22.3488 22.125 23.1925 23.0312 23.1925Z" fill="#FDFDFF"/>
</svg>
