<svg width="40" height="41" viewBox="0 0 40 41" fill="none" xmlns="http://www.w3.org/2000/svg">
<rect x="0.5" y="1.13" width="39" height="39" rx="2.5" stroke="#EFEFEF"/>
<path d="M20 17.0363C21.9688 17.0363 23.5938 18.6613 23.5938 20.63C23.5938 22.63 21.9688 24.2238 20 24.2238C18 24.2238 16.4062 22.63 16.4062 20.63C16.4062 18.6613 18 17.0363 20 17.0363ZM20 22.9738C21.2812 22.9738 22.3125 21.9425 22.3125 20.63C22.3125 19.3488 21.2812 18.3175 20 18.3175C18.6875 18.3175 17.6562 19.3488 17.6562 20.63C17.6562 21.9425 18.7188 22.9738 20 22.9738ZM24.5625 16.9113C24.5625 17.38 24.1875 17.755 23.7188 17.755C23.25 17.755 22.875 17.38 22.875 16.9113C22.875 16.4425 23.25 16.0675 23.7188 16.0675C24.1875 16.0675 24.5625 16.4425 24.5625 16.9113ZM26.9375 17.755C27 18.9113 27 22.38 26.9375 23.5363C26.875 24.6613 26.625 25.63 25.8125 26.4738C25 27.2863 24 27.5363 22.875 27.5988C21.7188 27.6613 18.25 27.6613 17.0938 27.5988C15.9688 27.5363 15 27.2863 14.1562 26.4738C13.3438 25.63 13.0938 24.6613 13.0312 23.5363C12.9688 22.38 12.9688 18.9113 13.0312 17.755C13.0938 16.63 13.3438 15.63 14.1562 14.8175C15 14.005 15.9688 13.755 17.0938 13.6925C18.25 13.63 21.7188 13.63 22.875 13.6925C24 13.755 25 14.005 25.8125 14.8175C26.625 15.63 26.875 16.63 26.9375 17.755ZM25.4375 24.755C25.8125 23.8488 25.7188 21.6613 25.7188 20.63C25.7188 19.63 25.8125 17.4425 25.4375 16.505C25.1875 15.9113 24.7188 15.4113 24.125 15.1925C23.1875 14.8175 21 14.9113 20 14.9113C18.9688 14.9113 16.7812 14.8175 15.875 15.1925C15.25 15.4425 14.7812 15.9113 14.5312 16.505C14.1562 17.4425 14.25 19.63 14.25 20.63C14.25 21.6613 14.1562 23.8488 14.5312 24.755C14.7812 25.38 15.25 25.8488 15.875 26.0988C16.7812 26.4738 18.9688 26.38 20 26.38C21 26.38 23.1875 26.4738 24.125 26.0988C24.7188 25.8488 25.2188 25.38 25.4375 24.755Z" fill="#FDFDFF"/>
</svg>
