<svg width="40" height="41" viewBox="0 0 40 41" fill="none" xmlns="http://www.w3.org/2000/svg">
<rect x="0.5" y="1.13" width="39" height="39" rx="2.5" stroke="#EFEFEF"/>
<path d="M26.3438 17.38C26.3438 17.5363 26.3438 17.6613 26.3438 17.8175C26.3438 22.1613 23.0625 27.13 17.0312 27.13C15.1562 27.13 13.4375 26.5988 12 25.6613C12.25 25.6925 12.5 25.7238 12.7812 25.7238C14.3125 25.7238 15.7188 25.1925 16.8438 24.3175C15.4062 24.2863 14.1875 23.3488 13.7812 22.0363C14 22.0675 14.1875 22.0988 14.4062 22.0988C14.6875 22.0988 15 22.0363 15.25 21.9738C13.75 21.6613 12.625 20.3488 12.625 18.755V18.7238C13.0625 18.9738 13.5938 19.0988 14.125 19.13C13.2188 18.5363 12.6562 17.5363 12.6562 16.4113C12.6562 15.7863 12.8125 15.2238 13.0938 14.755C14.7188 16.7238 17.1562 18.0363 19.875 18.1925C19.8125 17.9425 19.7812 17.6925 19.7812 17.4425C19.7812 15.63 21.25 14.1613 23.0625 14.1613C24 14.1613 24.8438 14.5363 25.4688 15.1925C26.1875 15.0363 26.9062 14.755 27.5312 14.38C27.2812 15.1613 26.7812 15.7863 26.0938 16.1925C26.75 16.13 27.4062 15.9425 27.9688 15.6925C27.5312 16.3488 26.9688 16.9113 26.3438 17.38Z" fill="#FDFDFF"/>
</svg>
