<svg width="16" height="17" viewBox="0 0 16 17" fill="none" xmlns="http://www.w3.org/2000/svg">
<path d="M13.7573 4.41797C13.7573 4.56445 13.7573 4.68164 13.7573 4.82812C13.7573 8.90039 10.6812 13.5586 5.02686 13.5586C3.26904 13.5586 1.65771 13.0605 0.310059 12.1816C0.544434 12.2109 0.778809 12.2402 1.04248 12.2402C2.47803 12.2402 3.79639 11.7422 4.85107 10.9219C3.50342 10.8926 2.36084 10.0137 1.97998 8.7832C2.18506 8.8125 2.36084 8.8418 2.56592 8.8418C2.82959 8.8418 3.12256 8.7832 3.35693 8.72461C1.95068 8.43164 0.895996 7.20117 0.895996 5.70703V5.67773C1.30615 5.91211 1.8042 6.0293 2.30225 6.05859C1.45264 5.50195 0.925293 4.56445 0.925293 3.50977C0.925293 2.92383 1.07178 2.39648 1.33545 1.95703C2.85889 3.80273 5.14404 5.0332 7.69287 5.17969C7.63428 4.94531 7.60498 4.71094 7.60498 4.47656C7.60498 2.77734 8.98193 1.40039 10.6812 1.40039C11.5601 1.40039 12.3511 1.75195 12.937 2.36719C13.6108 2.2207 14.2847 1.95703 14.8706 1.60547C14.6362 2.33789 14.1675 2.92383 13.5229 3.30469C14.1382 3.24609 14.7534 3.07031 15.2808 2.83594C14.8706 3.45117 14.3433 3.97852 13.7573 4.41797Z" fill="white"/>
</svg>
