<svg width="22" height="16" viewBox="0 0 22 16" fill="none" xmlns="http://www.w3.org/2000/svg">
<path d="M20.9453 2.44336C21.4141 4.08398 21.4141 7.59961 21.4141 7.59961C21.4141 7.59961 21.4141 11.0762 20.9453 12.7559C20.7109 13.6934 19.9688 14.3965 19.0703 14.6309C17.3906 15.0605 10.75 15.0605 10.75 15.0605C10.75 15.0605 4.07031 15.0605 2.39062 14.6309C1.49219 14.3965 0.75 13.6934 0.515625 12.7559C0.046875 11.0762 0.046875 7.59961 0.046875 7.59961C0.046875 7.59961 0.046875 4.08398 0.515625 2.44336C0.75 1.50586 1.49219 0.763672 2.39062 0.529297C4.07031 0.0605469 10.75 0.0605469 10.75 0.0605469C10.75 0.0605469 17.3906 0.0605469 19.0703 0.529297C19.9688 0.763672 20.7109 1.50586 20.9453 2.44336ZM8.5625 10.7637L14.1094 7.59961L8.5625 4.43555V10.7637Z" fill="white"/>
</svg>
